# xmcd
#
# Track frame offsets:
#	150
#	13106
#	29333
#	43467
#	58854
#	76388
#	90955
#	107283
#	122654
#	140307
#	156139
#	167020
#	182071
#	199540
#	214814
#	230224
#	245675
#	259377
#	272451
#
# Disc length: 3847 seconds
#
# Revision: 0
# Processed by: cddbd v1.5.2PL0 Copyright (c) Steve Scherf et al.
# Submitted via: EasyCDDAExtractor 5.0.5.1
#
DISCID=080f0513
DTITLE=Various Artist -  HOTT COUNTRY # 132
DYEAR=1900
DGENRE=Country
TTITLE0=Blaine Larsen - I WISH THAT I COULD FALL IN LOVE TODAY
TTITLE1=Blake Shelton - DON'T MAKE ME
TTITLE2=Eric Church - GUYS LIKE ME
TTITLE3=Rascal Flatts - STAND
TTITLE4=Lonestar - NOTHING TO PROVE
TTITLE5=Montgomery Gentry - Lucky Man
TTITLE6=Bob Seger and Patty Loveless - THE ANSWER'S IN THE QUESTION
TTITLE7=Corb Lund Band - The Truth Comes Out
TTITLE8=Kellie Pickler - I Wonder
TTITLE9=Cross Canadian Ragweed - LATE LAST NIGHT
TTITLE10=Liam Frost And The Slowdown Family - She Painted Pictures
TTITLE11=Ronnie Milsap - You Don't Know My Love
TTITLE12=Emerson Drive - MOMENTS
TTITLE13=Sarah Buxton - THAT KIND OF DAY
TTITLE14=Johnny Reid - Love Sweet Love
TTITLE15=cole Dreggs and The Lonesome - I Got More
TTITLE16=Willie Nelson - $1000 WEDDING
TTITLE17=Seth Lakeman - LADY OF THE SEA
TTITLE18=Alabama - FEELS SO RIGHT
EXTD=September 2006\n
EXTT0=
EXTT1=
EXTT2=
EXTT3=
EXTT4=
EXTT5=
EXTT6=
EXTT7=
EXTT8=
EXTT9=
EXTT10=
EXTT11=
EXTT12=
EXTT13=
EXTT14=
EXTT15=
EXTT16=
EXTT17=
EXTT18=
PLAYORDER=
